# xmcd
#
# Track frame offsets: 
#        150
#        12340
#        31820
#        44808
#        55642
#        68902
#        84243
#        97489
#        109524
#        122308
#        136225
#        150470
#        164103
#        178140
#        191291
#        204565
#        217823
#        231593
#        245480
#        256874
#
# Disc length: 3594 seconds
#
# Revision: 0
# Processed by: cddbd v1.5.2PL0 Copyright (c) Steve Scherf et al.
# Submitted via: ExactAudioCopy v0.99pb5
#
DISCID=130e0814
DTITLE=Various Artist - Voodoo Blues - The Devil Within CD2
DYEAR=2010
DGENRE=Blues
TTITLE0=Otis Spann - I'd Rather Be The Devil
TTITLE1=Champion Jack Dupree - Evil Woman
TTITLE2=Robert Johnson - Preaching Blues (Up Jumped The Devil)
TTITLE3=Screamin' Jay Hawkins - Little Demon
TTITLE4=Sonny Boy Williamson - Hoodoo Hoodoo
TTITLE5=J.D. Short - Snake Doctor Blues
TTITLE6=Lightnin' Hopkins - Black Cat Bone
TTITLE7=Louis Jordan - Somebody Done Hoodooed The Hoodoo Man
TTITLE8=Howlin' Wolf - I Asked For Water (She Gave Me Gasolin)
TTITLE9=Bobby Leecan and Robert Cooksey - Black Cat Bone Blues
TTITLE10=Champion Jack Dupree - Nasty Boogie
TTITLE11=Josh White - Evil Hearted Man
TTITLE12=Curley Weaver - Two Faced Woman
TTITLE13=Bessie Smith - Blue Spirit Blues
TTITLE14=Johnnie Temple - Hoodoo Women
TTITLE15=Ma Rainey - Louisiana Hoo Doo Blues
TTITLE16=Arhtur "Big Boy" Crudup - Hoodoo Lady Blues
TTITLE17=T-Bone Walker - Street Walking Woman
TTITLE18=Sonny Boy Williamson II - Your Funeral And My Trial
TTITLE19=John Lee Hooker - Graveyard Blues
EXTD=
EXTT0=
EXTT1=
EXTT2=
EXTT3=
EXTT4=
EXTT5=
EXTT6=
EXTT7=
EXTT8=
EXTT9=
EXTT10=
EXTT11=
EXTT12=
EXTT13=
EXTT14=
EXTT15=
EXTT16=
EXTT17=
EXTT18=
EXTT19=
PLAYORDER=
